<?xml version="1.0" encoding="UTF-8" standalone="no"?>
<!-- Created with Inkscape (http://www.inkscape.org/) -->

<svg
   xmlns:dc="http://purl.org/dc/elements/1.1/"
   xmlns:cc="http://creativecommons.org/ns#"
   xmlns:rdf="http://www.w3.org/1999/02/22-rdf-syntax-ns#"
   xmlns:svg="http://www.w3.org/2000/svg"
   xmlns="http://www.w3.org/2000/svg"
   version="1.1"
   width="210mm"
   height="297mm"
   id="svg2">
  <defs
     id="defs4">
    <linearGradient
       id="linearGradient13433">
      <stop
         id="stop13435"
         style="stop-color:#3e4c66;stop-opacity:1"
         offset="0" />
      <stop
         id="stop13437"
         style="stop-color:#ccdceb;stop-opacity:1"
         offset="1" />
    </linearGradient>
  </defs>
  <metadata
     id="metadata7">
    <rdf:RDF>
      <cc:Work
         rdf:about="">
        <dc:format>image/svg+xml</dc:format>
        <dc:type
           rdf:resource="http://purl.org/dc/dcmitype/StillImage" />
        <dc:title></dc:title>
      </cc:Work>
    </rdf:RDF>
  </metadata>
  <g
     id="layer1">
    <g
       transform="matrix(22.340698,0,0,22.340698,-6279.6168,-11788.061)"
       id="text13550"
       style="font-size:40px;font-style:normal;font-variant:normal;font-weight:normal;font-stretch:normal;text-align:center;line-height:80.00000119%;letter-spacing:0px;word-spacing:0px;writing-mode:lr-tb;text-anchor:middle;fill:#ff6600;fill-opacity:1;stroke:none;font-family:Nucleus BRK;-inkscape-font-specification:Nucleus BRK">
      <path
         d="m 311.16971,541.74919 0.52,1.08 -4,1.44 -0.16,-0.4 3.64,-2.12 m -1.36,-2.16 0.68,0.96 -3.68,2.12 -0.24,-0.4 3.24,-2.68 m 2.88,7.04 0.12,1.16 -4.24,0 -0.04,-0.4 4.16,-0.76 m -29.32,1.16 0.08,-1.16 4.16,0.72 -0.04,0.44 -4.2,0 m 0.08,2.6 -0.08,-1.2 4.2,0 0.04,0.44 -4.16,0.76 m 28.72,-6.24 0.28,1.12 -4.16,0.72 -0.12,-0.4 4,-1.44 m 0.64,5.04 -0.12,1.16 -4.16,-0.72 0.04,-0.44 4.24,0 m -1.16,5.04 -0.48,1.04 -3.64,-2.12 0.16,-0.36 3.96,1.44 m 0.8,-2.48 -0.28,1.16 -4,-1.44 0.12,-0.44 4.16,0.72 m -1.96,4.72 -0.68,0.96 -3.24,-2.72 0.24,-0.36 3.68,2.12 m -1.6,2.04 c -2.34669,2.56 -5.25336,4.09333 -8.72,4.6 l 0,2.24 -4.2,0 0,-2.24 c -3.01335,-0.42667 -5.68001,-1.72 -8,-3.88 -2.29334,-2.13333 -3.73334,-4.70666 -4.32,-7.72 l 8.12,-2.96 0,-0.08 -8.12,-2.96 c 0.61333,-3.03998 2.05333,-5.61331 4.32,-7.72 2.31999,-2.15997 4.98665,-3.45331 8,-3.88 l 0,-2.24 4.2,0 0,2.24 c 3.51998,0.53336 6.42664,2.06669 8.72,4.6 l -3.24,2.72 c -0.98669,-1.01331 -2.13336,-1.79998 -3.44,-2.36 -1.28002,-0.58664 -2.65335,-0.87998 -4.12,-0.88 -1.86668,2e-5 -3.60001,0.45336 -5.2,1.36 -1.57334,0.90669 -2.84001,2.13335 -3.8,3.68 l 4.12,1.48 c 0.58665,-0.71998 1.30665,-1.27998 2.16,-1.68 0.85332,-0.42665 1.75998,-0.63998 2.72,-0.64 1.75998,2e-5 3.25331,0.61335 4.48,1.84 1.22664,1.22668 1.83998,2.72001 1.84,4.48 -2e-5,1.76001 -0.61336,3.25334 -1.84,4.48 -1.22669,1.22667 -2.72002,1.84001 -4.48,1.84 -0.93335,10e-6 -1.84002,-0.21333 -2.72,-0.64 -0.85335,-0.42666 -1.57335,-0.98666 -2.16,-1.68 l -4.08,1.52 c 0.95999,1.54667 2.21332,2.77334 3.76,3.68 1.54665,0.88 3.27998,1.32 5.2,1.32 1.51998,0 2.90665,-0.28 4.16,-0.84 1.25331,-0.56 2.38664,-1.36 3.4,-2.4 l 3.24,2.72 m -12.92,-10 c -2e-5,0.58668 0.19998,1.09334 0.6,1.52 0.42665,0.40001 0.93332,0.60001 1.52,0.6 0.58665,10e-6 1.07998,-0.19999 1.48,-0.6 0.39998,-0.39999 0.59998,-0.90666 0.6,-1.52 -2e-5,-0.55999 -0.20002,-1.05332 -0.6,-1.48 -0.40002,-0.42665 -0.89335,-0.63999 -1.48,-0.64 -0.58668,10e-6 -1.09335,0.21335 -1.52,0.64 -0.40002,0.40001 -0.60002,0.89335 -0.6,1.48"
         id="path14342"
         style="line-height:80.00000119%;fill:#ff6600;font-family:Nucleus BRK;-inkscape-font-specification:Nucleus BRK" />
    </g>
  </g>
</svg>
